<svg width="24" height="24" viewBox="0 0 24 24" fill="none" xmlns="http://www.w3.org/2000/svg">
<path d="M21.3744 12.0003C21.3744 12.2987 21.2559 12.5848 21.0449 12.7958C20.8339 13.0068 20.5478 13.1253 20.2494 13.1253H6.46817L11.2982 17.9543C11.5095 18.1657 11.6282 18.4523 11.6282 18.7512C11.6282 19.0501 11.5095 19.3367 11.2982 19.5481C11.0868 19.7594 10.8002 19.8782 10.5013 19.8782C10.2024 19.8782 9.91577 19.7594 9.70442 19.5481L2.95442 12.7981C2.84954 12.6936 2.76633 12.5694 2.70954 12.4326C2.65276 12.2959 2.62354 12.1493 2.62354 12.0012C2.62354 11.8532 2.65276 11.7065 2.70954 11.5698C2.76633 11.4331 2.84954 11.3089 2.95442 11.2043L9.70442 4.45434C9.80907 4.3497 9.9333 4.26669 10.07 4.21005C10.2068 4.15342 10.3533 4.12427 10.5013 4.12427C10.6493 4.12427 10.7958 4.15342 10.9326 4.21005C11.0693 4.26669 11.1935 4.3497 11.2982 4.45434C11.4028 4.55899 11.4858 4.68323 11.5425 4.81995C11.5991 4.95668 11.6282 5.10323 11.6282 5.25122C11.6282 5.39921 11.5991 5.54576 11.5425 5.68248C11.4858 5.81921 11.4028 5.94345 11.2982 6.04809L6.46817 10.8753H20.2494C20.5478 10.8753 20.8339 10.9938 21.0449 11.2048C21.2559 11.4158 21.3744 11.7019 21.3744 12.0003Z" fill="#344054"/>
</svg>
