<svg width="33" height="32" viewBox="0 0 33 32" fill="none" xmlns="http://www.w3.org/2000/svg">
<path d="M17.4994 15.0002V22.0002C17.4994 22.2655 17.3941 22.5198 17.2065 22.7073C17.019 22.8949 16.7646 23.0002 16.4994 23.0002C16.2342 23.0002 15.9799 22.8949 15.7923 22.7073C15.6048 22.5198 15.4994 22.2655 15.4994 22.0002V15.0002C15.4994 14.735 15.6048 14.4807 15.7923 14.2931C15.9799 14.1056 16.2342 14.0002 16.4994 14.0002C16.7646 14.0002 17.019 14.1056 17.2065 14.2931C17.3941 14.4807 17.4994 14.735 17.4994 15.0002ZM30.4819 12.264L28.7494 25.2652C28.6852 25.7457 28.4486 26.1865 28.0837 26.5057C27.7188 26.8248 27.2505 27.0006 26.7657 27.0002H6.23318C5.74841 27.0006 5.28002 26.8248 4.91512 26.5057C4.55023 26.1865 4.31366 25.7457 4.24943 25.2652L2.51568 12.2652C2.4779 11.9826 2.50099 11.6952 2.5834 11.4222C2.66581 11.1492 2.80564 10.897 2.99351 10.6825C3.18138 10.468 3.41294 10.2962 3.67267 10.1785C3.9324 10.0608 4.21429 10 4.49943 10.0002H9.04568L15.7494 2.34149C15.8433 2.23509 15.9587 2.14986 16.088 2.09149C16.2173 2.03312 16.3576 2.00293 16.4994 2.00293C16.6413 2.00293 16.7816 2.03312 16.9109 2.09149C17.0402 2.14986 17.1556 2.23509 17.2494 2.34149L23.9532 10.0002H28.4994C28.7842 10.0004 29.0657 10.0614 29.3251 10.1792C29.5844 10.2969 29.8156 10.4687 30.0031 10.6831C30.1907 10.8974 30.3304 11.1493 30.4127 11.4219C30.4951 11.6946 30.5182 11.9817 30.4807 12.264H30.4819ZM11.7032 10.0002H21.2957L16.4994 4.51899L11.7032 10.0002ZM28.4994 12.0002H4.49943L6.23318 25.0002H26.7657L28.4994 12.0002ZM22.1044 14.9002L21.4044 21.9002C21.3906 22.0313 21.4028 22.1638 21.4404 22.2901C21.4779 22.4164 21.5401 22.5341 21.6232 22.6363C21.7064 22.7386 21.809 22.8233 21.925 22.8858C22.0411 22.9482 22.1683 22.9871 22.2994 23.0002C22.3332 23.0021 22.367 23.0021 22.4007 23.0002C22.6484 22.9999 22.8871 22.9077 23.0707 22.7414C23.2543 22.5752 23.3697 22.3467 23.3944 22.1002L24.0944 15.1002C24.121 14.8364 24.0416 14.5727 23.8737 14.3674C23.7059 14.162 23.4633 14.0318 23.1994 14.0052C22.9355 13.9787 22.6719 14.0581 22.4666 14.226C22.2612 14.3938 22.131 14.6364 22.1044 14.9002ZM10.8944 14.9002C10.8679 14.6364 10.7376 14.3938 10.5323 14.226C10.3269 14.0581 10.0633 13.9787 9.79943 14.0052C9.53554 14.0318 9.29299 14.162 9.12515 14.3674C8.9573 14.5727 8.87791 14.8364 8.90443 15.1002L9.60443 22.1002C9.6293 22.3478 9.74555 22.5771 9.93045 22.7435C10.1154 22.91 10.3557 23.0015 10.6044 23.0002C10.6382 23.0021 10.672 23.0021 10.7057 23.0002C10.8363 22.9871 10.9631 22.9484 11.0788 22.8862C11.1945 22.8241 11.2969 22.7398 11.38 22.6381C11.4631 22.5364 11.5253 22.4194 11.5632 22.2936C11.6011 22.1679 11.6138 22.0359 11.6007 21.9052L10.8944 14.9002Z" fill="#667185"/>
</svg>
