<svg width="33" height="32" viewBox="0 0 33 32" fill="none" xmlns="http://www.w3.org/2000/svg">
<path d="M28.2255 21.9925C27.5318 20.7975 26.5005 17.4163 26.5005 13C26.5005 10.3478 25.4469 7.8043 23.5716 5.92893C21.6962 4.05357 19.1527 3 16.5005 3C13.8483 3 11.3048 4.05357 9.42944 5.92893C7.55407 7.8043 6.5005 10.3478 6.5005 13C6.5005 17.4175 5.468 20.7975 4.77425 21.9925C4.59709 22.2963 4.50317 22.6415 4.50196 22.9931C4.50076 23.3448 4.59231 23.6906 4.76738 23.9956C4.94245 24.3006 5.19485 24.5541 5.49914 24.7304C5.80342 24.9068 6.14882 24.9997 6.5005 25H11.6018C11.8325 26.1289 12.446 27.1436 13.3387 27.8722C14.2313 28.6009 15.3482 28.9989 16.5005 28.9989C17.6528 28.9989 18.7697 28.6009 19.6623 27.8722C20.555 27.1436 21.1685 26.1289 21.3993 25H26.5005C26.8521 24.9995 27.1973 24.9064 27.5014 24.73C27.8055 24.5535 28.0578 24.3 28.2327 23.9951C28.4076 23.6901 28.4991 23.3444 28.4978 22.9928C28.4965 22.6412 28.4026 22.2962 28.2255 21.9925ZM16.5005 27C15.8803 26.9998 15.2754 26.8074 14.769 26.4492C14.2626 26.0911 13.8797 25.5848 13.673 25H19.328C19.1213 25.5848 18.7384 26.0911 18.232 26.4492C17.7257 26.8074 17.1207 26.9998 16.5005 27ZM6.5005 23C7.463 21.345 8.5005 17.51 8.5005 13C8.5005 10.8783 9.34336 8.84344 10.8436 7.34315C12.3439 5.84285 14.3788 5 16.5005 5C18.6222 5 20.6571 5.84285 22.1574 7.34315C23.6576 8.84344 24.5005 10.8783 24.5005 13C24.5005 17.5063 25.5355 21.3412 26.5005 23H6.5005Z" fill="#667185"/>
</svg>
