<svg width="25" height="24" viewBox="0 0 25 24" fill="none" xmlns="http://www.w3.org/2000/svg">
<path d="M20.531 9.53031L13.031 17.0303C12.9614 17.1 12.8787 17.1554 12.7876 17.1931C12.6966 17.2308 12.599 17.2503 12.5004 17.2503C12.4019 17.2503 12.3043 17.2308 12.2132 17.1931C12.1222 17.1554 12.0394 17.1 11.9698 17.0303L4.46979 9.53031C4.32906 9.38958 4.25 9.19871 4.25 8.99968C4.25 8.80066 4.32906 8.60979 4.46979 8.46906C4.61052 8.32833 4.80139 8.24927 5.00042 8.24927C5.19944 8.24927 5.39031 8.32833 5.53104 8.46906L12.5004 15.4394L19.4698 8.46906C19.5395 8.39938 19.6222 8.3441 19.7132 8.30639C19.8043 8.26868 19.9019 8.24927 20.0004 8.24927C20.099 8.24927 20.1965 8.26868 20.2876 8.30639C20.3786 8.3441 20.4614 8.39938 20.531 8.46906C20.6007 8.53874 20.656 8.62147 20.6937 8.71251C20.7314 8.80356 20.7508 8.90114 20.7508 8.99968C20.7508 9.09823 20.7314 9.19581 20.6937 9.28686C20.656 9.3779 20.6007 9.46063 20.531 9.53031Z" fill="#667185"/>
</svg>
