<svg width="33" height="32" viewBox="0 0 33 32" fill="none" xmlns="http://www.w3.org/2000/svg">
<path d="M29.2913 17.6325C28.9191 17.3462 28.486 17.1496 28.0255 17.0578C27.5651 16.9661 27.0897 16.9819 26.6362 17.1038L21.4062 18.3063C21.5279 17.7922 21.5317 17.2574 21.4172 16.7417C21.3028 16.226 21.0731 15.7429 20.7454 15.3287C20.4177 14.9144 20.0005 14.5797 19.5251 14.3495C19.0496 14.1194 18.5282 13.9999 18 14H11.7425C11.217 13.9987 10.6964 14.1015 10.2109 14.3025C9.72539 14.5036 9.28451 14.7988 8.91375 15.1713L6.08625 18H2.5C1.96957 18 1.46086 18.2107 1.08579 18.5858C0.710714 18.9609 0.5 19.4696 0.5 20L0.5 25C0.5 25.5304 0.710714 26.0391 1.08579 26.4142C1.46086 26.7893 1.96957 27 2.5 27H15.5C15.5818 27 15.6632 26.99 15.7425 26.97L23.7425 24.97C23.7935 24.9579 23.8433 24.9411 23.8913 24.92L28.75 22.8525L28.805 22.8275C29.272 22.5942 29.6718 22.2458 29.9669 21.8152C30.2621 21.3846 30.4427 20.886 30.4918 20.3663C30.541 19.8466 30.457 19.3229 30.2478 18.8447C30.0387 18.3664 29.7112 17.9492 29.2962 17.6325H29.2913ZM2.5 20H5.5V25H2.5V20ZM27.9287 21.0263L23.1787 23.0488L15.375 25H7.5V19.4138L10.3287 16.5863C10.5138 16.3997 10.7341 16.2518 10.9768 16.1512C11.2195 16.0506 11.4798 15.9992 11.7425 16H18C18.3978 16 18.7794 16.158 19.0607 16.4393C19.342 16.7206 19.5 17.1022 19.5 17.5C19.5 17.8978 19.342 18.2794 19.0607 18.5607C18.7794 18.842 18.3978 19 18 19H14.5C14.2348 19 13.9804 19.1054 13.7929 19.2929C13.6054 19.4804 13.5 19.7348 13.5 20C13.5 20.2652 13.6054 20.5196 13.7929 20.7071C13.9804 20.8946 14.2348 21 14.5 21H18.5C18.5753 20.9998 18.6503 20.9914 18.7237 20.975L27.0987 19.0488L27.1375 19.0388C27.3932 18.9678 27.666 18.9939 27.9036 19.112C28.1412 19.2301 28.3267 19.4319 28.4245 19.6786C28.5222 19.9253 28.5253 20.1994 28.4331 20.4482C28.3409 20.697 28.1599 20.9029 27.925 21.0263H27.9287ZM21 12C21.2471 12.0003 21.4937 11.9802 21.7375 11.94C22.0117 12.7544 22.5133 13.4733 23.1832 14.0117C23.853 14.55 24.6629 14.8854 25.5173 14.978C26.3716 15.0706 27.2346 14.9167 28.0042 14.5344C28.7739 14.1521 29.4179 13.5574 29.8603 12.8206C30.3026 12.0839 30.5248 11.2359 30.5005 10.3769C30.4762 9.51787 30.2064 8.68379 29.7231 7.97325C29.2398 7.2627 28.5631 6.7054 27.7731 6.36724C26.9831 6.02909 26.1127 5.9242 25.265 6.065C25.001 5.28031 24.5256 4.58366 23.8912 4.05172C23.2568 3.51979 22.4879 3.17318 21.6692 3.05005C20.8505 2.92692 20.0137 3.03203 19.2509 3.35383C18.488 3.67563 17.8288 4.20163 17.3456 4.87396C16.8625 5.54628 16.5742 6.33886 16.5125 7.16447C16.4507 7.99008 16.618 8.81672 16.9958 9.55342C17.3735 10.2901 17.9472 10.9083 18.6537 11.34C19.3602 11.7716 20.1721 12 21 12ZM28.5 10.5C28.5 10.9945 28.3534 11.4778 28.0787 11.8889C27.804 12.3001 27.4135 12.6205 26.9567 12.8097C26.4999 12.9989 25.9972 13.0484 25.5123 12.952C25.0273 12.8555 24.5819 12.6174 24.2322 12.2678C23.8826 11.9181 23.6445 11.4727 23.548 10.9877C23.4516 10.5028 23.5011 10.0001 23.6903 9.54329C23.8795 9.08648 24.2 8.69603 24.6111 8.42133C25.0222 8.14662 25.5055 8 26 8C26.663 8 27.2989 8.26339 27.7678 8.73223C28.2366 9.20108 28.5 9.83696 28.5 10.5ZM21 5C21.5454 5.00027 22.0757 5.17888 22.5101 5.5086C22.9446 5.83832 23.2593 6.30105 23.4062 6.82625C22.8941 7.18662 22.4628 7.64992 22.1399 8.18652C21.8171 8.72312 21.6097 9.3212 21.5312 9.9425C21.3567 9.9802 21.1786 9.99948 21 10C20.337 10 19.7011 9.73661 19.2322 9.26777C18.7634 8.79893 18.5 8.16304 18.5 7.5C18.5 6.83696 18.7634 6.20108 19.2322 5.73223C19.7011 5.26339 20.337 5 21 5Z" fill="#667185"/>
</svg>
