<svg width="20" height="20" viewBox="0 0 20 20" fill="none" xmlns="http://www.w3.org/2000/svg">
<path d="M20.0002 10.6252C20.0002 10.8739 19.9014 11.1123 19.7256 11.2881C19.5498 11.464 19.3113 11.5627 19.0627 11.5627H18.4377V12.1877C18.4377 12.4364 18.3389 12.6748 18.1631 12.8506C17.9873 13.0265 17.7488 13.1252 17.5002 13.1252C17.2515 13.1252 17.0131 13.0265 16.8373 12.8506C16.6615 12.6748 16.5627 12.4364 16.5627 12.1877V11.5627H15.9377C15.689 11.5627 15.4506 11.464 15.2748 11.2881C15.099 11.1123 15.0002 10.8739 15.0002 10.6252C15.0002 10.3766 15.099 10.1381 15.2748 9.96232C15.4506 9.7865 15.689 9.68773 15.9377 9.68773H16.5627V9.06273C16.5627 8.81409 16.6615 8.57563 16.8373 8.39982C17.0131 8.224 17.2515 8.12523 17.5002 8.12523C17.7488 8.12523 17.9873 8.224 18.1631 8.39982C18.3389 8.57563 18.4377 8.81409 18.4377 9.06273V9.68773H19.0627C19.3113 9.68773 19.5498 9.7865 19.7256 9.96232C19.9014 10.1381 20.0002 10.3766 20.0002 10.6252ZM15.7181 15.0221C15.8781 15.2125 15.9559 15.4587 15.9343 15.7064C15.9128 15.9542 15.7937 16.1832 15.6033 16.3432C15.4129 16.5032 15.1667 16.5809 14.919 16.5594C14.6712 16.5378 14.4422 16.4188 14.2822 16.2284C13.2127 14.9549 11.3283 13.4377 8.43768 13.4377C6.18065 13.4377 4.10487 14.4284 2.59315 16.2284C2.43319 16.4188 2.20414 16.5378 1.95639 16.5594C1.70863 16.5809 1.46247 16.5032 1.27205 16.3432C1.08164 16.1832 0.962563 15.9542 0.941026 15.7064C0.919488 15.4587 0.997252 15.2125 1.15721 15.0221C2.17575 13.792 3.48243 12.8326 4.96112 12.2291C4.04161 11.5062 3.37033 10.5147 3.04069 9.39241C2.71105 8.27016 2.73945 7.07307 3.12193 5.96772C3.50441 4.86237 4.22196 3.90374 5.17471 3.22525C6.12746 2.54675 7.26802 2.18213 8.43768 2.18213C9.60734 2.18213 10.7479 2.54675 11.7007 3.22525C12.6534 3.90374 13.3709 4.86237 13.7534 5.96772C14.1359 7.07307 14.1643 8.27016 13.8347 9.39241C13.505 10.5147 12.8337 11.5062 11.9142 12.2291C13.3931 12.8323 14.6998 13.7918 15.7181 15.0221ZM8.43768 11.5627C9.17936 11.5627 9.90438 11.3428 10.5211 10.9307C11.1378 10.5187 11.6184 9.93301 11.9022 9.24779C12.1861 8.56257 12.2603 7.80857 12.1156 7.08114C11.9709 6.35371 11.6138 5.68553 11.0893 5.16108C10.5649 4.63663 9.8967 4.27948 9.16927 4.13478C8.44184 3.99009 7.68784 4.06435 7.00262 4.34818C6.31739 4.63201 5.73172 5.11266 5.31967 5.72934C4.90761 6.34602 4.68768 7.07105 4.68768 7.81273C4.68871 8.80697 5.08413 9.7602 5.78717 10.4632C6.49021 11.1663 7.44344 11.5617 8.43768 11.5627Z" fill="#0D6EFD"/>
</svg>
